<svg xmlns="http://www.w3.org/2000/svg" viewBox="0 80.0 432.95703125 239.7490692138672">
<g transform="translate(88.478515625,0)"><circle cx="100.0" cy="150.0" r="46.0" fill="#E8632A"/>
<circle cx="156.0" cy="150.0" r="46.0" fill="#141414"/></g>
<g transform="translate(24.0,294.7178192138672) scale(0.88)" fill="#141414"><path d="M19.816482067108154 -13.359308242797852V-33.230531215667725H21.675872802734375L37.374985218048096 -51.5625H56.7266583442688L34.07825231552124 -24.996066093444824H29.734456539154053ZM4.667949676513672 0.0V-72.75390625H21.50399684906006V0.0ZM38.191378116607666 0.0 23.800837993621826 -21.285104751586914 34.78137254714966 -33.05861949920654 57.57039785385132 0.0ZM84.20901298522949 1.171875Q76.15236043930054 1.171875 70.03321051597595 -2.1591782569885254Q63.91406059265137 -5.490231513977051 60.50292253494263 -11.54491901397705Q57.09178447723389 -17.59960651397705 57.09178447723389 -25.757813453674316Q57.09178447723389 -33.927738666534424 60.50292253494263 -39.97558951377869Q63.91406059265137 -46.02344036102295 70.03321051597595 -49.378907680511475Q76.15236043930054 -52.734375 84.20901298522949 -52.734375Q92.31449365615845 -52.734375 98.40922951698303 -49.378907680511475Q104.50396537780762 -46.02344036102295 107.91510343551636 -39.97558951377869Q111.3262414932251 -33.927738666534424 111.3262414932251 -25.757813453674316Q111.3262414932251 -17.59960651397705 107.91510343551636 -11.54491901397705Q104.50396537780762 -5.490231513977051 98.40922951698303 -2.1591782569885254Q92.31449365615845 1.171875 84.20901298522949 1.171875ZM84.20901298522949 -12.211012840270996Q87.16211318969727 -12.211012840270996 89.4413948059082 -13.787174224853516Q91.72067642211914 -15.363335609436035 93.01949739456177 -18.39749813079834Q94.3183183670044 -21.431660652160645 94.3183183670044 -25.757813453674316Q94.3183183670044 -30.14451265335083 93.01949739456177 -33.160120248794556Q91.72067642211914 -36.17572784423828 89.4413948059082 -37.76360750198364Q87.16211318969727 -39.351487159729004 84.20901298522949 -39.351487159729004Q81.30474090576172 -39.351487159729004 79.00104522705078 -37.76946663856506Q76.69734954833984 -36.18744611740112 75.39852857589722 -33.16597938537598Q74.09970760345459 -30.14451265335083 74.09970760345459 -25.757813453674316Q74.09970760345459 -21.419942378997803 75.39852857589722 -18.39163899421692Q76.69734954833984 -15.363335609436035 78.99518609046936 -13.787174224853516Q81.29302263259888 -12.211012840270996 84.20901298522949 -12.211012840270996ZM143.5351848602295 1.171875Q135.47853231430054 1.171875 129.35938239097595 -2.1591782569885254Q123.24023246765137 -5.490231513977051 119.82909440994263 -11.54491901397705Q116.41795635223389 -17.59960651397705 116.41795635223389 -25.757813453674316Q116.41795635223389 -33.927738666534424 119.82909440994263 -39.97558951377869Q123.24023246765137 -46.02344036102295 129.35938239097595 -49.378907680511475Q135.47853231430054 -52.734375 143.5351848602295 -52.734375Q151.64066553115845 -52.734375 157.73540139198303 -49.378907680511475Q163.83013725280762 -46.02344036102295 167.24127531051636 -39.97558951377869Q170.6524133682251 -33.927738666534424 170.6524133682251 -25.757813453674316Q170.6524133682251 -17.59960651397705 167.24127531051636 -11.54491901397705Q163.83013725280762 -5.490231513977051 157.73540139198303 -2.1591782569885254Q151.64066553115845 1.171875 143.5351848602295 1.171875ZM143.5351848602295 -12.211012840270996Q146.48828506469727 -12.211012840270996 148.7675666809082 -13.787174224853516Q151.04684829711914 -15.363335609436035 152.34566926956177 -18.39749813079834Q153.6444902420044 -21.431660652160645 153.6444902420044 -25.757813453674316Q153.6444902420044 -30.14451265335083 152.34566926956177 -33.160120248794556Q151.04684829711914 -36.17572784423828 148.7675666809082 -37.76360750198364Q146.48828506469727 -39.351487159729004 143.5351848602295 -39.351487159729004Q140.63091278076172 -39.351487159729004 138.32721710205078 -37.76946663856506Q136.02352142333984 -36.18744611740112 134.72470045089722 -33.16597938537598Q133.4258794784546 -30.14451265335083 133.4258794784546 -25.757813453674316Q133.4258794784546 -21.419942378997803 134.72470045089722 -18.39163899421692Q136.02352142333984 -15.363335609436035 138.32135796546936 -13.787174224853516Q140.61919450759888 -12.211012840270996 143.5351848602295 -12.211012840270996ZM210.35362482070923 -51.5625V-38.570237159729004H174.1113305091858V-51.5625ZM182.9199194908142 -65.625H199.7559666633606V-17.324280738830566Q199.7559666633606 -14.865303039550781 200.7413148880005 -13.928782939910889Q201.72666311264038 -12.992262840270996 204.5293927192688 -12.992262840270996Q205.80087900161743 -12.992262840270996 207.6514720916748 -12.992262840270996Q209.50206518173218 -12.992262840270996 210.35362482070923 -12.992262840270996V0.0Q209.04698371887207 0.0 206.3643515110016 0.0Q203.6817193031311 0.0 200.85357427597046 0.0Q191.54103994369507 0.0 187.23047971725464 -3.4990310668945312Q182.9199194908142 -6.9980621337890625 182.9199194908142 -14.51566219329834ZM245.02159357070923 -51.5625V-38.570237159729004H208.7792992591858V-51.5625ZM217.5878882408142 -65.625H234.4239354133606V-17.324280738830566Q234.4239354133606 -14.865303039550781 235.4092836380005 -13.928782939910889Q236.39463186264038 -12.992262840270996 239.1973614692688 -12.992262840270996Q240.46884775161743 -12.992262840270996 242.3194408416748 -12.992262840270996Q244.17003393173218 -12.992262840270996 245.02159357070923 -12.992262840270996V0.0Q243.71495246887207 0.0 241.0323202610016 0.0Q238.3496880531311 0.0 235.52154302597046 0.0Q226.20900869369507 0.0 221.89844846725464 -3.4990310668945312Q217.5878882408142 -6.9980621337890625 217.5878882408142 -14.51566219329834Z"/></g>
<g transform="translate(241.421875,294.7178192138672) scale(0.88)" fill="#E8632A"><path d="M12.730491161346436 0.9042978286743164Q8.929693698883057 0.9042978286743164 6.238275766372681 -1.7871201038360596Q3.5468578338623047 -4.4785380363464355 3.5468578338623047 -8.279335498809814Q3.5468578338623047 -12.091851234436035 6.238275766372681 -14.77741003036499Q8.929693698883057 -17.462968826293945 12.730491161346436 -17.462968826293945Q16.543006896972656 -17.462968826293945 19.22856569290161 -14.77741003036499Q21.914124488830566 -12.091851234436035 21.914124488830566 -8.279335498809814Q21.914124488830566 -4.4785380363464355 19.22856569290161 -1.7871201038360596Q16.543006896972656 0.9042978286743164 12.730491161346436 0.9042978286743164ZM46.94344997406006 -72.75390625V0.0H30.107402801513672V-72.75390625ZM56.27927780151367 0.0V-51.5625H73.11532497406006V0.0ZM64.6601915359497 -56.574153900146484Q60.60938835144043 -56.574153900146484 58.002930879592896 -58.98422793648278Q55.39647340774536 -61.394301972819086 55.39647340774536 -65.08755034948948Q55.39647340774536 -68.77537965774536 58.002930879592896 -71.15917801856995Q60.60938835144043 -73.54297637939453 64.63743668158078 -73.54297637939453Q68.70039190564836 -73.54297637939453 71.3121507849012 -71.16315407412392Q73.92390966415405 -68.78333176885333 73.92390966415405 -65.06581577387723Q73.92390966415405 -61.37886047363281 71.30905058648851 -58.97650718688965Q68.69419150882297 -56.574153900146484 64.6601915359497 -56.574153900146484ZM96.79489135742188 0.0 77.98631191253662 -51.5625H95.58017253875732L103.03910970687866 -27.812576293945312Q104.52934503555298 -22.91412353515625 105.89165091514587 -18.015670776367188Q107.25395679473877 -13.117218017578125 108.58598947525024 -8.218765258789062H104.5801043510437Q105.88674545288086 -13.117218017578125 107.20608234405518 -18.015670776367188Q108.52541923522949 -22.91412353515625 109.96682643890381 -27.812576293945312L117.27927923202515 -51.5625H134.6895456314087L115.88096618652344 0.0ZM162.31447458267212 1.171875Q154.4121265411377 1.171875 148.41602444648743 -2.276366949081421Q142.41992235183716 -5.724608898162842 139.08690810203552 -11.822265386581421Q135.7538938522339 -17.919921875 135.7538938522339 -25.757813453674316Q135.7538938522339 -33.656251430511475 139.10350799560547 -39.741212129592896Q142.45312213897705 -45.826172828674316 148.33887219429016 -49.28027391433716Q154.22462224960327 -52.734375 161.87697649002075 -52.734375Q167.69338846206665 -52.734375 172.47855067253113 -50.79980492591858Q177.2637128829956 -48.86523485183716 180.74809312820435 -45.307618379592896Q184.2324733734131 -41.75000190734863 186.1279845237732 -36.88672184944153Q188.0234956741333 -32.023441791534424 188.0234956741333 -26.166021823883057V-21.644508838653564H141.18750095367432V-31.667983531951904H180.15626668930054L172.47262001037598 -29.623067378997803Q172.47262001037598 -32.966792583465576 171.24215960502625 -35.36423444747925Q170.0116991996765 -37.76167631149292 167.74413585662842 -39.05072808265686Q165.47657251358032 -40.3397798538208 162.2851848602295 -40.3397798538208Q159.14262533187866 -40.3397798538208 156.8623661994934 -39.05072808265686Q154.58210706710815 -37.76167631149292 153.35164666175842 -35.36423444747925Q152.1211862564087 -32.966792583465576 152.1211862564087 -29.623067378997803V-22.21090793609619Q152.1211862564087 -18.78124475479126 153.39559316635132 -16.238296031951904Q154.67000007629395 -13.695347309112549 157.09088444709778 -12.322312593460083Q159.5117688179016 -10.949277877807617 162.90823221206665 -10.949277877807617Q165.3828263282776 -10.949277877807617 167.33105778694153 -11.63286566734314Q169.27928924560547 -12.316453456878662 170.60936093330383 -13.56937289237976Q171.9394326210022 -14.82229232788086 172.5351333618164 -16.505873203277588H187.66412734985352Q186.72467470169067 -11.31446361541748 183.16607475280762 -7.337898015975952Q179.60747480392456 -3.361332416534424 174.21391010284424 -1.094728708267212Q168.82034540176392 1.171875 162.31447458267212 1.171875Z"/></g>
</svg>
